PathFileType	4	(X/Y/Z)	D:\TRACE\spotREDO_2-26-24\spot_baseline_4-platform.trc
DataRate	CameraRate	NumFrames	NumMarkers	Units	OrigDataRate	OrigDataStartFrame	OrigNumFrames
100.00	100.00	      25	5	mm	100.00	5251	      7000
Frame#	Time	Left_Front			Right_Front			Left_Aft			Right_Aft			Post			
		X1	Y1	Z1	X2	Y2	Z2	X3	Y3	Z3	X4	Y4	Z4	X5	Y5	Z5	

5251	52.500	-696.90131	-3.87529	-575.67755	718.08044	4.87101	-490.89938	-767.99396	4.92472	643.64716	801.19049	11.04844	647.45490	4.35577	741.41815	-982.84064	
5252	52.510	-696.88470	-3.89342	-575.65576	718.05249	4.90165	-490.91367	-768.00897	4.87414	643.65460	801.13373	11.24924	647.75311	4.44160	741.36646	-982.94623	
5253	52.520	-696.91565	-3.87284	-575.68164	718.04126	4.84895	-490.89218	-768.13861	4.74259	643.53894	801.21838	11.00357	647.42767	4.45572	741.38190	-982.96960	
5254	52.530	-696.88501	-3.89150	-575.65283	718.00092	4.99113	-491.03564	-768.12665	4.76010	643.55487	801.22839	10.99739	647.48102	4.39932	741.38446	-983.00958	
5255	52.540	-696.89124	-3.84768	-575.67102	718.09332	4.86030	-490.88068	-768.10211	4.74121	643.56946	801.30450	11.17251	647.55206	4.47300	741.37024	-982.99200	
5256	52.550	-696.87073	-3.87732	-575.67139	718.00787	5.10346	-490.98190	-768.10944	4.76289	643.56415	801.30981	11.21437	647.60712	4.45062	741.37982	-982.95575	
5257	52.560	-696.89520	-3.86061	-575.67603	718.00269	5.01445	-491.03384	-768.10785	4.71242	643.54773	801.31732	11.05556	647.45892	4.39016	741.40076	-982.89520	
5258	52.570	-696.91333	-3.88116	-575.65790	718.07715	4.83922	-490.86093	-768.09827	4.69893	643.53180	801.18622	11.34135	647.80994	4.39147	741.40881	-982.86499	
5259	52.580	-696.88800	-3.90252	-575.67261	718.08429	4.84602	-490.92816	-768.11230	4.70991	643.49567	801.29944	11.11309	647.50922	4.30715	741.42889	-982.80780	
5260	52.590	-696.88647	-3.90655	-575.67126	718.11749	4.86254	-490.87671	-768.08398	4.68001	643.55402	801.31293	11.41277	647.81592	4.30502	741.40021	-982.84790	
5261	52.600	-696.87653	-3.90704	-575.67346	718.05823	5.06919	-490.97232	-767.92816	4.79909	643.61005	801.27869	11.36844	647.81006	4.30820	741.44873	-982.78650	
5262	52.610	-696.86884	-3.92816	-575.67694	718.15643	4.86734	-490.85715	-768.09491	4.71798	643.53949	801.28766	11.17288	647.53497	4.38056	741.42792	-982.82507	
5263	52.620	-696.88208	-3.87368	-575.66223	718.09735	4.84219	-490.92584	-768.09076	4.64733	643.53265	801.23792	11.07245	647.45691	4.35814	741.41553	-982.86029	
5264	52.630	-696.87775	-3.88459	-575.67285	718.03198	5.03006	-491.01053	-768.12146	4.61725	643.50079	801.22107	11.37708	647.81744	4.41459	741.40961	-982.89392	
5265	52.640	-696.88873	-3.85578	-575.67261	718.19556	4.90960	-490.83505	-768.06488	4.63707	643.54932	801.28455	11.38872	647.84314	4.36570	741.40851	-982.93378	
5266	52.650	-696.89368	-3.88578	-575.67255	718.07489	5.10322	-490.96329	-768.08704	4.62771	643.55243	801.26843	11.38900	647.81714	4.36995	741.41486	-982.93256	
5267	52.660	-696.87274	-3.91558	-575.69904	718.11511	5.11068	-490.94058	-767.86957	4.72558	643.67230	801.31866	11.37924	647.81055	4.45453	741.39600	-982.94812	
5268	52.670	-696.90796	-3.86667	-575.68451	718.23383	4.91493	-490.79929	-768.02338	4.67291	643.58099	801.29352	11.40142	647.82343	4.43832	741.38043	-982.95117	
5269	52.680	-696.91559	-3.88699	-575.65613	718.12891	5.05179	-490.90820	-768.08618	4.58135	643.59229	801.21033	11.34116	647.81470	4.35349	741.41187	-982.93579	
5270	52.690	-696.88483	-3.91462	-575.69495	718.18127	5.03748	-490.86862	-768.02948	4.54364	643.60236	801.27460	11.15204	647.50934	4.36980	741.39178	-982.92395	
5271	52.700	-696.88605	-3.85651	-575.66229	718.17072	5.10431	-490.88461	-768.03564	4.55545	643.60547	801.26050	11.39146	647.83972	4.41790	741.36951	-982.92438	
5272	52.710	-696.88708	-3.89173	-575.67944	718.20892	5.11978	-490.83145	-767.96088	4.44652	643.70563	801.27441	11.18511	647.57355	4.39835	741.43329	-982.87122	
5273	52.720	-696.89557	-3.86753	-575.66425	718.32214	4.94580	-490.72311	-767.93707	4.41777	643.69330	801.22662	10.98787	647.46234	4.38324	741.43158	-982.86047	
5274	52.730	-696.91296	-3.84645	-575.67053	718.31335	4.95869	-490.72903	-767.89783	4.28525	643.67908	801.30890	11.07018	647.50641	4.38020	741.42059	-982.85834	
5275	52.740	-696.92303	-3.88444	-575.65973	718.31592	4.95293	-490.69791	-767.87622	4.23681	643.68921	801.31720	11.12103	647.51898	4.36849	741.44891	-982.85114	
